<svg width="91" height="76" viewBox="0 0 91 76" fill="none" xmlns="http://www.w3.org/2000/svg">
<g style="mix-blend-mode:darken">
<path d="M19.2546 25.2C19.2546 39.1176 22.7993 50.4 19.2546 50.4C15.7099 50.4 12.8364 39.1176 12.8364 25.2C12.8364 11.2824 15.7099 0 19.2546 0C22.7993 0 19.2546 11.2824 19.2546 25.2Z" fill="white"/>
<path d="M28.4151 25.2C28.4151 39.1176 24.8704 50.4 28.4151 50.4C31.9597 50.4 34.8333 39.1176 34.8333 25.2C34.8333 11.2824 31.9597 0 28.4151 0C24.8704 0 28.4151 11.2824 28.4151 25.2Z" fill="white"/>
<ellipse cx="24.5058" cy="22.7999" rx="24.5058" ry="2" fill="white"/>
<ellipse cx="57.7636" cy="42.4" rx="8" ry="1.75042" transform="rotate(90 57.7636 42.4)" fill="white"/>
<path d="M50.1787 42.4C50.1787 46.8183 46.5214 50.4 42.01 50.4C37.4986 50.4 33.8414 46.8183 33.8414 42.4C33.8414 37.9818 37.4986 34.4 42.01 34.4C46.5214 34.4 50.1787 37.9818 50.1787 42.4ZM36.7666 42.4C36.7666 45.2361 39.1142 47.5352 42.01 47.5352C44.9059 47.5352 47.2534 45.2361 47.2534 42.4C47.2534 39.564 44.9059 37.2649 42.01 37.2649C39.1142 37.2649 36.7666 39.564 36.7666 42.4Z" fill="white"/>
<path d="M52.5125 45.2001C52.5125 50.2811 57.3023 50.4001 56.0133 50.4001C54.7244 50.4001 47.8447 50.2811 47.8447 45.2001C47.8447 40.1191 48.8896 36.0001 50.1786 36.0001C51.4676 36.0001 52.5125 40.1191 52.5125 45.2001Z" fill="white"/>
<path d="M84.0201 42.4C84.0201 46.8183 80.3629 50.4 75.8515 50.4C71.3401 50.4 67.6829 46.8183 67.6829 42.4C67.6829 37.9818 71.3401 34.4 75.8515 34.4C80.3629 34.4 84.0201 37.9818 84.0201 42.4ZM70.6081 42.4C70.6081 45.2361 72.9556 47.5352 75.8515 47.5352C78.7473 47.5352 81.0949 45.2361 81.0949 42.4C81.0949 39.564 78.7473 37.2649 75.8515 37.2649C72.9556 37.2649 70.6081 39.564 70.6081 42.4Z" fill="white"/>
<path d="M86.3539 45.2001C86.3539 50.2811 91.1437 50.4001 89.8548 50.4001C88.5658 50.4001 81.6862 50.2811 81.6862 45.2001C81.6862 40.1191 82.7311 36.0001 84.02 36.0001C85.309 36.0001 86.3539 40.1191 86.3539 45.2001Z" fill="white"/>
<ellipse cx="57.7638" cy="31.5999" rx="1.75042" ry="1.2" fill="white"/>
<ellipse cx="63.4051" cy="26.2221" rx="8.55875" ry="2.22209" fill="white"/>
<path d="M65.307 28.2049C65.307 42.1953 67.933 50.4258 65.307 50.4258C62.6809 50.4258 60.5521 39.0844 60.5521 25.094C60.5521 0.651024 79.7985 2.42869 82.4245 2.42869C85.0505 2.42869 65.307 14.2146 65.307 28.2049Z" fill="white"/>
<path d="M3.02627 52.8001H17.7253L6.91718 58.8001L17.7253 76.0001L0 74.0001L9.51113 71.6001L3.02627 52.8001Z" fill="white"/>
<path d="M17.293 58.4L18.5899 60L19.8869 71.6L25.9395 76L17.7253 74L17.293 58.4Z" fill="white"/>
<path d="M22.4809 66.4L18.1576 68H12.9697L22.4809 66.4Z" fill="white"/>
<path d="M47.5557 58.4L48.8526 60L50.1496 71.6L56.2021 76L47.988 74L47.5557 58.4Z" fill="white"/>
<path d="M52.7434 66.4L48.4202 68H43.2323L52.7434 66.4Z" fill="white"/>
<path d="M26.8042 60.8001H38.4769L28.9658 62.8001L26.8042 76.0001V60.8001Z" fill="white"/>
<path d="M30.2627 68.8001H35.4506L31.0038 74.4001L35.4506 76.0001H30.2627V68.8001Z" fill="white"/>
<path d="M37.1799 64.8H44.9618L38.2916 73.5111L44.9618 76H37.1799V64.8Z" fill="white"/>
<path d="M56.2023 52.8001H77.9579L60.0095 55.8075L58.9217 70.4149L56.2023 76.0001V52.8001Z" fill="white"/>
<path d="M56.2023 61.5999H71.4312L57.8339 63.5999L56.2023 64.7999V61.5999Z" fill="white"/>
<path d="M70.3434 69.5999C70.3434 73.1345 68.3953 75.9999 65.9922 75.9999C63.5892 75.9999 61.6411 73.1345 61.6411 69.5999C61.6411 66.0653 63.5892 63.1999 65.9922 63.1999C68.3953 63.1999 70.3434 66.0653 70.3434 69.5999ZM63.6352 69.5999C63.6352 71.5146 64.6905 73.0668 65.9922 73.0668C67.294 73.0668 68.3493 71.5146 68.3493 69.5999C68.3493 67.6852 67.294 66.133 65.9922 66.133C64.6905 66.133 63.6352 67.6852 63.6352 69.5999Z" fill="white"/>
<path d="M77.9578 69.5999C77.9578 73.1345 76.0097 75.9999 73.6066 75.9999C71.2036 75.9999 69.2555 73.1345 69.2555 69.5999C69.2555 66.0653 71.2036 63.1999 73.6066 63.1999C76.0097 63.1999 77.9578 66.0653 77.9578 69.5999ZM71.2496 69.5999C71.2496 71.5146 72.3049 73.0668 73.6066 73.0668C74.9084 73.0668 75.9637 71.5146 75.9637 69.5999C75.9637 67.6852 74.9084 66.133 73.6066 66.133C72.3049 66.133 71.2496 67.6852 71.2496 69.5999Z" fill="white"/>
<path d="M85.5723 69.5999C85.5723 73.1345 83.6242 75.9999 81.2211 75.9999C78.8181 75.9999 76.87 73.1345 76.87 69.5999C76.87 66.0653 78.8181 63.1999 81.2211 63.1999C83.6242 63.1999 85.5723 66.0653 85.5723 69.5999ZM78.8641 69.5999C78.8641 71.5146 79.9194 73.0668 81.2211 73.0668C82.5229 73.0668 83.5782 71.5146 83.5782 69.5999C83.5782 67.6852 82.5229 66.133 81.2211 66.133C79.9194 66.133 78.8641 67.6852 78.8641 69.5999Z" fill="white"/>
<path d="M85.2634 52.3367L86.4538 74.0134L91 74.9207L84.5519 75.9308L85.2634 52.3367Z" fill="white"/>
</g>
</svg>
